<svg width="20" height="20" viewBox="0 0 20 20" fill="none" xmlns="http://www.w3.org/2000/svg">
<path opacity="0.9" fill-rule="evenodd" clip-rule="evenodd" d="M5.05127 5.05029C4.66064 5.44092 4.66064 6.07373 5.05127 6.46436L8.58643 10L5.05127 13.5356C4.66064 13.9258 4.66064 14.5591 5.05127 14.9497C5.44189 15.3403 6.07471 15.3403 6.46533 14.9497L10.0005 11.4141L13.5356 14.9497C13.9263 15.3403 14.5591 15.3403 14.9497 14.9497C15.1802 14.7183 15.2739 14.4019 15.231 14.1011C15.2036 13.894 15.1099 13.6948 14.9497 13.5356L11.4146 10L14.9497 6.46436C15.3403 6.07373 15.3403 5.44043 14.9497 5.05029C14.5591 4.65967 13.9263 4.65967 13.5356 5.05029L10.0005 8.58594L6.46533 5.05029C6.07471 4.65967 5.44189 4.65967 5.05127 5.05029Z" fill="#B4B4B4"/>
</svg>
