<svg width="80" height="29" viewBox="0 0 80 29" fill="none" xmlns="http://www.w3.org/2000/svg">
<path fill-rule="evenodd" clip-rule="evenodd" d="M65.5273 10.1152C65.5273 5.06299 67.8984 1.60645 67.8984 1.60645L68.4766 0.858398C68.7539 0.997559 69.4961 1.20215 70.4336 1.46045C71.8906 1.86182 73.8203 2.39307 75.2031 3.01172C76.2305 3.4707 77.2617 4.08008 78.0938 4.9873C78.1836 5.08496 78.2695 5.18604 78.3555 5.29102C79.2227 6.36865 79.7656 7.83594 79.7656 9.5835C79.7656 10.5166 79.5664 11.3164 79.2656 11.9795C78.957 12.6523 78.5469 13.1846 78.1328 13.5723C77.7383 13.9424 77.3398 14.1992 77.0195 14.3701C77.2227 15.3765 77.3164 16.3677 77.3594 17.2974C77.3906 18.0259 77.3906 18.7163 77.3906 19.3462H75.0195V18.8872C75.0273 15.6943 75.0352 12.3926 71.5703 9.5835L73.0156 7.646C74.6328 8.95654 75.6719 10.4287 76.3164 11.939L76.3828 11.8882C76.4219 11.8594 76.457 11.833 76.5039 11.7866C76.9414 11.3691 77.3906 10.7847 77.3906 9.5835C77.3906 8.3252 77.0391 7.51807 76.5039 6.84863C75.9648 6.17871 75.2031 5.62793 74.2773 5.21484C73.3516 4.7998 72.375 4.521 71.4297 4.25049C70.7734 4.06299 70.1328 3.87939 69.5312 3.65771C69.0781 4.40771 67.8984 6.54932 67.8984 10.1152C67.8984 12.4326 68.5156 13.4248 69.0508 13.9141C69.582 14.4033 70.2148 14.4839 70.457 14.4839C70.8789 14.4839 71.7266 14.0278 72.793 13.5723L73.6836 15.8135C72.8633 16.165 71.875 16.915 70.457 16.915C69.8086 16.915 68.5625 16.7202 67.457 15.6997C66.8125 15.1074 66.2656 14.2578 65.9219 13.1069C65.6719 12.2734 65.5273 11.2817 65.5273 10.1152ZM2.66406 26.0005C3.96094 27.3311 5.59766 27.9868 7.53516 27.9868C9.47656 27.9868 11.0938 27.3125 12.4102 25.9644C13.7461 24.6157 14.4023 22.9756 14.4023 21.0439C14.4023 19.1123 13.7461 17.4722 12.4102 16.1055C11.7031 15.373 10.9102 14.8398 10.0352 14.5024C9.27344 14.21 8.44531 14.0645 7.55469 14.0645C5.63281 14.0645 4.01562 14.7388 2.67969 16.1055C1.36328 17.4722 0.707031 19.1304 0.707031 21.0806C0.707031 23.0303 1.36328 24.6704 2.66406 26.0005ZM10.4766 17.959C11.2734 18.7788 11.668 19.7993 11.668 21.0386C11.6758 21.7271 11.5586 22.3516 11.3086 22.9126C11.1133 23.3467 10.8398 23.7427 10.4922 24.1001C9.69141 24.9199 8.71484 25.3208 7.55859 25.3208C6.40234 25.3208 5.42188 24.9199 4.625 24.1001C3.83984 23.2803 3.44922 22.2598 3.44922 21.0386C3.44922 19.8179 3.83984 18.7788 4.64062 17.959C5.44141 17.1387 6.40234 16.7197 7.55859 16.7197C8.71484 16.7197 9.67578 17.1387 10.4766 17.959ZM17.8672 22.4526V27.7739H15.3594V17.8423H17.8125V19.2271C18.3281 18.2612 19.4844 17.5688 20.8555 17.5688C21.9062 17.5688 22.8125 17.9331 23.543 18.644C24.2695 19.3545 24.6445 20.375 24.6445 21.7056V27.7739H22.1367V22.3979C22.1367 21.6191 21.9375 21.0117 21.5938 20.5957C21.2344 20.1646 20.7148 19.938 20.0898 19.938C18.7578 19.938 17.8672 20.9766 17.8672 22.4526ZM35.2734 23.6919C35.3281 23.291 35.3633 22.9082 35.3633 22.562C35.3633 21.7178 35.2266 20.9761 34.957 20.3315C34.7305 19.7939 34.4102 19.3237 33.9961 18.9175C33.5352 18.4653 33.0078 18.1255 32.418 17.8999C31.8398 17.6802 31.2031 17.5688 30.5078 17.5688C29.0156 17.5688 27.8047 18.061 26.8633 19.0449C25.918 20.0288 25.457 21.2681 25.457 22.7808C25.457 24.2202 25.9023 25.4595 26.8086 26.4619C27.7148 27.4639 29.0156 27.9741 30.7227 27.9741C32.3242 27.9741 33.7266 27.5186 34.9531 26.6074L33.957 24.8032C33.1211 25.3867 31.8789 25.8057 30.8281 25.8057C29.3008 25.8057 28.3555 25.0952 28 23.6919H35.2734ZM28.0195 21.7964C28.3203 20.5024 29.2656 19.7188 30.5273 19.7188C31.8086 19.7188 32.7148 20.5024 32.9453 21.7964H28.0195ZM35.2891 25.4541C36.375 27.0757 38.2227 27.9688 40.2695 27.9688C41.7109 27.9688 42.8672 27.5859 43.7539 26.8208C44.6445 26.0552 45.0898 25.0713 45.0898 23.8687C45.0898 22.374 44.3438 21.2627 42.8477 20.5156C42.5117 20.3516 41.9766 20.1147 41.2461 19.8047L39.9492 19.2217C39.2383 18.8569 38.8828 18.4199 38.8828 17.8911C38.8828 17.1079 39.5234 16.5977 40.5703 16.5977C41.5508 16.5977 42.7227 17.0532 43.4531 17.855L44.8594 15.8867C43.6836 14.666 42.2422 14.0645 40.5352 14.0645C39.2188 14.0645 38.1367 14.4473 37.3008 15.1943C36.4648 15.9414 36.0547 16.8706 36.0547 18.0005C36.0547 19.4219 36.7461 20.5337 38.1367 21.3535C38.2578 21.4224 38.3984 21.4976 38.5586 21.5776C38.8633 21.731 39.2383 21.9028 39.6836 22.0825L40.0508 22.2275C40.5312 22.416 40.8398 22.5376 40.9805 22.6108C41.4023 22.8135 41.7109 23.0415 41.9102 23.2925C42.0859 23.5156 42.1719 23.7568 42.1719 24.0142C42.1719 24.8706 41.3711 25.4541 40.2852 25.4541C38.9336 25.4541 37.6562 24.7979 36.8008 23.5767L35.2891 25.4541ZM46.9727 19.0996C45.9961 20.1021 45.5156 21.3408 45.5156 22.7988C45.5156 24.2749 45.9961 25.5142 46.9727 26.5166C47.9531 27.5186 49.1992 28.0288 50.7109 28.0288C52.2227 28.0288 53.4648 27.5186 54.4453 26.5166C55.4219 25.5142 55.9023 24.2749 55.9023 22.7988C55.9023 21.8931 55.7188 21.0718 55.3438 20.3389C55.1133 19.8926 54.8164 19.479 54.4453 19.0996C53.4648 18.0791 52.2227 17.5688 50.7109 17.5688C49.1992 17.5688 47.9531 18.0791 46.9727 19.0996ZM50.7148 25.624C49.9492 25.624 49.3086 25.3506 48.793 24.8037C48.2773 24.2388 48.0273 23.5649 48.0273 22.7812C48.0273 21.9976 48.2773 21.3232 48.793 20.7764C49.0625 20.4897 49.3672 20.2783 49.707 20.1416C50.0156 20.0181 50.3516 19.9565 50.7148 19.9565C51.1797 19.9565 51.5938 20.0586 51.9648 20.2622C52.1992 20.3921 52.418 20.5635 52.6172 20.7764C53.1328 21.3232 53.3984 21.9976 53.3984 22.7812C53.3984 23.167 53.3359 23.5259 53.2109 23.8589C53.0781 24.2021 52.8789 24.5171 52.6172 24.8037C52.3164 25.1245 51.9766 25.3516 51.5898 25.4844C51.3203 25.5776 51.0312 25.624 50.7148 25.624ZM59.2344 14.0132C59.8242 14.5962 59.8242 15.6533 59.2344 16.2544C58.6484 16.856 57.6172 16.856 57.0312 16.2544C56.4414 15.6533 56.4414 14.5962 57.0312 14.0132C57.6172 13.4116 58.6484 13.4116 59.2344 14.0132ZM56.8828 17.834H59.3906V27.7656H56.8828V17.834ZM60.7852 13.9062H63.293V27.7559H60.7852V13.9062Z" fill="#20BF55"/>
</svg>
