<svg width="17" height="15" viewBox="0 0 17 15" fill="none" xmlns="http://www.w3.org/2000/svg">
<path fill-rule="evenodd" clip-rule="evenodd" d="M10.8945 6.67725C10.8945 8.85791 9.10547 10.6255 6.89844 10.6255C4.69141 10.6255 2.90234 8.85791 2.90234 6.67725C2.90234 4.49658 4.69141 2.729 6.89844 2.729C9.10547 2.729 10.8945 4.49658 10.8945 6.67725ZM10.9922 11.002C9.92188 11.9927 8.48047 12.5996 6.89844 12.5996C3.58984 12.5996 0.90625 9.94775 0.90625 6.67725C0.90625 3.40625 3.58984 0.754883 6.89844 0.754883C10.207 0.754883 12.8906 3.40625 12.8906 6.67725C12.8906 7.6709 12.6406 8.60791 12.2031 9.43018L16.3633 12.8794C16.7852 13.2295 16.8398 13.8521 16.4844 14.2695C16.1289 14.6875 15.5 14.7417 15.0781 14.3916L10.9922 11.002Z" fill="#9B9B9B" fill-opacity="0.75"/>
</svg>
